<svg width="18" height="34" viewBox="0 0 18 34" fill="none" xmlns="http://www.w3.org/2000/svg">
<path d="M2.14661 33.1937V11.5544H9.16023C11.3099 11.5544 12.9622 11.997 14.117 12.8823C14.6694 13.2849 15.1194 13.8415 15.4231 14.4978C15.7267 15.1541 15.8735 15.8877 15.8492 16.6268C15.8601 17.7612 15.4829 18.8571 14.7953 19.6882C14.074 20.5775 13.138 21.2119 12.1013 21.5141V21.574C13.4726 21.7681 14.5676 22.3369 15.3865 23.2802C15.7868 23.7345 16.1018 24.2746 16.3128 24.8682C16.5238 25.4619 16.6265 26.0971 16.6148 26.7362C16.6148 28.7173 15.9833 30.2893 14.7202 31.4521C13.4572 32.615 11.7331 33.1955 9.54785 33.1937H2.14661ZM6.4856 15.1546V20.2869H8.40193C9.29509 20.2869 10.0001 20.0429 10.5169 19.5548C10.7737 19.3068 10.9767 18.9962 11.1106 18.6469C11.2445 18.2975 11.3058 17.9184 11.2897 17.5384C11.2897 15.9492 10.2327 15.1546 8.11848 15.1546H6.4856ZM6.4856 23.9061V29.6207H8.83801C9.84099 29.6207 10.6267 29.3586 11.1953 28.8343C11.4755 28.576 11.6984 28.2481 11.8464 27.8764C11.9944 27.5047 12.0634 27.0995 12.048 26.6927C12.0628 26.3022 11.9943 25.9135 11.848 25.5589C11.7018 25.2043 11.4821 24.8942 11.2074 24.6545C10.6469 24.161 9.86603 23.9143 8.86466 23.9143L6.4856 23.9061Z" fill="white"/>
<path d="M17.1234 3.24371C17.1234 1.85315 15.7352 0.81908 14.4318 1.79873C14.344 1.86748 14.2677 1.95316 14.2065 2.05181C14.0405 2.30984 13.9319 2.60875 13.8897 2.92357C13.8476 3.23839 13.8731 3.55997 13.9642 3.86143C14.0471 4.10766 14.0462 4.37955 13.9617 4.62507C13.8772 4.87059 13.7151 5.07249 13.5064 5.19212C13.1385 5.39862 12.7329 5.50578 12.3217 5.50506C11.7107 5.50398 11.1183 5.26836 10.6429 4.83727C10.1674 4.40618 9.83744 3.80551 9.70761 3.13486C10.2309 2.55251 10.4078 1.57559 9.84813 0.636755C9.78836 0.539201 9.71274 0.455191 9.62525 0.389125C8.32185 -0.595966 6.93124 0.438104 6.93124 1.83138C6.93089 2.07391 6.97356 2.31408 7.05675 2.53788C7.13994 2.76168 7.26199 2.96462 7.41577 3.13486C7.28595 3.80551 6.95596 4.40618 6.48051 4.83727C6.00507 5.26836 5.41274 5.50398 4.80172 5.50506C4.39046 5.50638 3.98467 5.39919 3.61704 5.19212C3.40787 5.07295 3.24522 4.87124 3.16027 4.62568C3.07533 4.38012 3.07407 4.10798 3.15673 3.86143C3.24906 3.56018 3.27525 3.23833 3.23307 2.92326C3.19089 2.6082 3.08159 2.30924 2.91447 2.05181C2.8546 1.95191 2.77809 1.86597 2.68916 1.79873C1.38818 0.81908 0 1.85315 0 3.24371C0.000169362 3.57047 0.0779358 3.89127 0.225284 4.17302C0.372632 4.45476 0.584225 4.68726 0.83824 4.84652C0.973219 4.92565 1.09005 5.03882 1.17958 5.17715C1.26911 5.31548 1.3289 5.47522 1.35427 5.64385C1.47696 6.65075 1.68795 7.64156 1.98416 8.60184C2.05141 8.80912 2.17313 8.98855 2.33321 9.11635C2.49329 9.24417 2.68417 9.31432 2.88055 9.31753H12.6415C13.3961 9.31717 14.1245 9.00678 14.6895 8.44488C15.2544 7.88297 15.6169 7.10835 15.7086 6.26701L15.8418 5.03429C16.2048 4.94395 16.5296 4.71735 16.7626 4.39184C16.9956 4.06634 17.1228 3.66137 17.1234 3.24371Z" fill="white"/>
</svg>
