<svg width="117" height="41" viewBox="0 0 117 41" fill="none" xmlns="http://www.w3.org/2000/svg">
<path d="M2.41101 33.1937V11.5544H10.289C12.7037 11.5544 14.5596 11.997 15.8567 12.8823C16.4772 13.2849 16.9827 13.8415 17.3237 14.4978C17.6648 15.1541 17.8297 15.8877 17.8024 16.6268C17.8146 17.7612 17.3909 18.8571 16.6186 19.6882C15.8084 20.5775 14.757 21.2119 13.5926 21.5141V21.574C15.1328 21.7681 16.3628 22.3369 17.2826 23.2802C17.7323 23.7345 18.0861 24.2746 18.3231 24.8682C18.5601 25.4619 18.6755 26.0971 18.6623 26.7362C18.6623 28.7173 17.953 30.2893 16.5343 31.4521C15.1156 32.615 13.179 33.1955 10.7244 33.1937H2.41101ZM7.28476 15.1546V20.2869H9.43727C10.4405 20.2869 11.2324 20.0429 11.8129 19.5548C12.1013 19.3068 12.3294 18.9962 12.4798 18.6469C12.6302 18.2975 12.699 17.9184 12.681 17.5384C12.681 15.9492 11.4936 15.1546 9.11889 15.1546H7.28476ZM7.28476 23.9061V29.6207H9.9271C11.0537 29.6207 11.9363 29.3586 12.5749 28.8343C12.8896 28.576 13.14 28.2481 13.3063 27.8764C13.4725 27.5047 13.55 27.0995 13.5327 26.6927C13.5494 26.3022 13.4723 25.9135 13.3081 25.5589C13.1438 25.2043 12.8971 24.8942 12.5885 24.6545C11.959 24.161 11.0818 23.9143 9.95703 23.9143L7.28476 23.9061Z" fill="white"/>
<path d="M34.6142 33.1937H30.1024V30.9759H30.0398C29.0058 32.7066 27.4719 33.572 25.4382 33.572C23.9397 33.572 22.7605 33.1466 21.9006 32.2957C21.0407 31.4449 20.6107 30.311 20.6107 28.8942C20.6107 25.8954 22.3859 24.1646 25.9362 23.702L30.1324 23.1442C30.1324 21.4534 29.2162 20.6089 27.3839 20.6107C25.5102 20.6178 23.6818 21.1866 22.1346 22.2434V18.6514C23.0019 18.2414 23.9156 17.938 24.8559 17.7479C25.8864 17.4991 26.9416 17.3668 28.0016 17.3534C32.4064 17.3534 34.6097 19.5521 34.6115 23.9497L34.6142 33.1937ZM30.1324 26.9185V25.8763L27.324 26.2382C25.7766 26.4396 25.0019 27.139 25.0001 28.3363C24.993 28.5866 25.0399 28.8355 25.1376 29.066C25.2352 29.2966 25.3814 29.5034 25.5661 29.6724C25.9911 30.0361 26.5397 30.2222 27.0982 30.1922C27.5066 30.2042 27.9127 30.1274 28.2885 29.9672C28.6644 29.807 29.001 29.5672 29.2752 29.2643C29.8521 28.6218 30.1591 27.7816 30.1324 26.9185Z" fill="white"/>
<path d="M53.3092 33.1937H48.5552V24.6082C48.5552 22.2135 47.7007 21.0162 45.9917 21.0162C45.6018 21.0085 45.2153 21.0903 44.8619 21.2554C44.5086 21.4205 44.1978 21.6645 43.9535 21.9686C43.4035 22.6498 43.1192 23.5074 43.1535 24.3823V33.1937H38.3859V17.7425H43.1535V20.1916H43.2134C44.3508 18.3103 46.0063 17.3697 48.1796 17.3697C51.6011 17.3697 53.311 19.4923 53.3092 23.7374V33.1937Z" fill="white"/>
<path d="M76.7746 15.2988C76.0473 15.3277 75.3378 15.0697 74.7989 14.5804C74.5517 14.3601 74.3549 14.0889 74.222 13.7855C74.0891 13.4822 74.0232 13.1537 74.0288 12.8225C74.019 12.4919 74.083 12.1633 74.2162 11.8606C74.3494 11.5579 74.5485 11.2888 74.7989 11.0727C75.3648 10.6321 76.0615 10.3928 76.7786 10.3928C77.4958 10.3928 78.1925 10.6321 78.7583 11.0727C79.0067 11.29 79.2038 11.5596 79.3356 11.8622C79.4673 12.1647 79.5304 12.4927 79.5203 12.8225C79.5304 13.1571 79.4674 13.4899 79.3358 13.7977C79.2042 14.1055 79.0072 14.381 78.7583 14.6049C78.211 15.0828 77.5005 15.3313 76.7746 15.2988ZM79.1284 33.1938H74.3608V17.7425H79.1284V33.1938Z" fill="white"/>
<path d="M98.0682 33.1937H93.3142V24.6082C93.3142 22.2135 92.4588 21.0162 90.7481 21.0162C90.3581 21.0085 89.9716 21.0903 89.6183 21.2554C89.2649 21.4205 88.9541 21.6645 88.7099 21.9686C88.1619 22.6508 87.8787 23.508 87.9126 24.3823V33.1937H83.1422V17.7425H87.9126V20.1916H87.9724C89.1063 18.3103 90.7608 17.3697 92.936 17.3697C96.3557 17.3697 98.0664 19.4923 98.0682 23.7374V33.1937Z" fill="white"/>
<path d="M116.989 31.4304C116.989 34.2949 116.159 36.5155 114.499 38.092C112.839 39.6685 110.435 40.4586 107.288 40.4622C105.203 40.4622 103.553 40.1647 102.338 39.5696V35.5476C103.788 36.4355 105.451 36.9158 107.152 36.9382C108.759 36.9382 110.006 36.5128 110.894 35.6619C111.781 34.8111 112.223 33.6564 112.222 32.1978V30.9759H112.162C111.073 32.7066 109.469 33.572 107.348 33.572C105.376 33.572 103.811 32.8781 102.654 31.4902C101.496 30.1024 100.918 28.2411 100.92 25.9063C100.92 23.2902 101.563 21.213 102.85 19.6746C104.136 18.1362 105.835 17.3661 107.946 17.3643C109.828 17.3643 111.236 18.0899 112.173 19.5413H112.232V17.7452H117L116.989 31.4304ZM112.281 25.7675V24.5456C112.305 23.6351 111.996 22.7472 111.413 22.0475C111.142 21.7137 110.797 21.4468 110.406 21.2675C110.015 21.0882 109.588 21.0013 109.157 21.0134C108.672 20.9965 108.19 21.1009 107.756 21.3171C107.321 21.5333 106.947 21.8545 106.667 22.2516C106.069 23.0789 105.769 24.2418 105.769 25.7403C105.769 27.0283 106.056 28.047 106.629 28.7962C106.901 29.1603 107.258 29.4529 107.668 29.6487C108.078 29.8444 108.529 29.9376 108.983 29.9201C109.444 29.9319 109.9 29.8348 110.316 29.6366C110.732 29.4385 111.095 29.1449 111.375 28.7799C111.977 28.0216 112.28 27.0174 112.281 25.7675Z" fill="white"/>
<path d="M72.5702 33.1937H66.8556L61.922 25.528H61.8621V33.1937H57.0836V10.3189H61.8512V24.8803H61.9111L66.5127 17.7425H72.1729L66.6352 25.0001L72.5702 33.1937Z" fill="white"/>
<path d="M19.2338 3.24371C19.2338 1.85315 17.6745 0.81908 16.2105 1.79873C16.1118 1.86748 16.0261 1.95316 15.9574 2.05181C15.7709 2.30984 15.6489 2.60875 15.6016 2.92357C15.5542 3.23839 15.5829 3.55997 15.6853 3.86143C15.7783 4.10766 15.7773 4.37955 15.6824 4.62507C15.5875 4.87059 15.4054 5.07249 15.1709 5.19212C14.7578 5.39862 14.3021 5.50578 13.8403 5.50506C13.1539 5.50398 12.4886 5.26836 11.9546 4.83727C11.4205 4.40618 11.0499 3.80551 10.904 3.13486C11.4918 2.55251 11.6905 1.57559 11.0619 0.636755C10.9947 0.539201 10.9098 0.455191 10.8115 0.389125C9.34748 -0.595966 7.78548 0.438104 7.78548 1.83138C7.78509 2.07391 7.83302 2.31408 7.92646 2.53788C8.01991 2.76168 8.15699 2.96462 8.32973 3.13486C8.1839 3.80551 7.81324 4.40618 7.2792 4.83727C6.74517 5.26836 6.07983 5.50398 5.39351 5.50506C4.93156 5.50638 4.47576 5.39919 4.06282 5.19212C3.82787 5.07295 3.64517 4.87124 3.54976 4.62568C3.45435 4.38012 3.45293 4.10798 3.54578 3.86143C3.6495 3.56018 3.67891 3.23833 3.63153 2.92326C3.58415 2.6082 3.46138 2.30924 3.27366 2.05181C3.20641 1.95191 3.12047 1.86597 3.02058 1.79873C1.55927 0.81908 0 1.85315 0 3.24371C0.000190235 3.57047 0.087541 3.89127 0.253049 4.17302C0.418557 4.45476 0.656228 4.68726 0.941549 4.84652C1.09316 4.92565 1.22439 5.03882 1.32495 5.17715C1.42552 5.31548 1.49268 5.47522 1.52118 5.64385C1.65899 6.65075 1.89598 7.64156 2.2287 8.60184C2.30423 8.80912 2.44096 8.98855 2.62077 9.11635C2.80058 9.24417 3.01498 9.31432 3.23556 9.31753H14.1995C15.0471 9.31717 15.8653 9.00678 16.4999 8.44488C17.1345 7.88297 17.5416 7.10835 17.6446 6.26701L17.7942 5.03429C18.202 4.94395 18.5668 4.71735 18.8285 4.39184C19.0902 4.06634 19.2331 3.66137 19.2338 3.24371Z" fill="white"/>
</svg>
