<?xml version="1.0" standalone="no"?>
<!DOCTYPE svg PUBLIC "-//W3C//DTD SVG 1.1//EN"
"http://www.w3.org/Graphics/SVG/1.1/DTD/svg11.dtd">

<svg width="539" height="438" view_box="0 0 539 438"
xmlns="http://www.w3.org/2000/svg"
xmlns:link="http://www.w3.org/1999/xlink">\n\n<desc>Généré par Mocodo 2.3.7 le Sun, 07 Jun 2020 10:09:03</desc>

<rect id="frame" x="0" y="0" width="539" height="438" fill="#fefeec" stroke="none" stroke-width="0"/>

<!-- Association FAIT -->
<line x1="239" y1="237" x2="74" y2="237" stroke="#060100" stroke-width="1"/>
<text x="163" y="253.0" fill="#060100" font-family="Courier New" font-size="12">0,N</text>
<path d="M 191.0 237.0 L 179.0 243.0 L 183.0 237.0 L 179.0 231.0 Z" fill="#060100" stroke-width="0"/>
<line x1="74" y1="98" x2="74" y2="237" stroke="#060100" stroke-width="1"/>
<text x="79.0" y="203" fill="#060100" font-family="Courier New" font-size="12">0,N</text>
<g id="association-FAIT">
	<path d="M 85 211 a 14 14 90 0 1 14 14 V 237 h -50 V 225 a 14 14 90 0 1 14 -14" fill="#081a84" stroke="#081a84" stroke-width="0"/>
	<path d="M 99 237.0 v 12 a 14 14 90 0 1 -14 14 H 63 a 14 14 90 0 1 -14 -14 V 237.0 H 50" fill="#fefeec" stroke="#fefeec" stroke-width="0"/>
	<rect x="49" y="211" width="50" height="52" fill="none" rx="14" stroke="#060100" stroke-width="1.5"/>
	<line x1="49" y1="237" x2="99" y2="237" stroke="#060100" stroke-width="1"/>
	<text x="56" y="229.6" fill="#fefeec" font-family="Courier New" font-size="14">FAIT</text>
</g>

<!-- Association A CATEGORIE -->
<line x1="239" y1="237" x2="432" y2="237" stroke="#060100" stroke-width="1"/>
<text x="292" y="253.0" fill="#060100" font-family="Courier New" font-size="12">1,1</text>
<line x1="432" y1="367" x2="432" y2="237" stroke="#060100" stroke-width="1"/>
<text x="437.0" y="297" fill="#060100" font-family="Courier New" font-size="12">0,N</text>
<path d="M 432.0 305.0 L 426.0 293.0 L 432.0 297.0 L 438.0 293.0 Z" fill="#060100" stroke-width="0"/>
<g id="association-A CATEGORIE">
	<path d="M 472 211 a 14 14 90 0 1 14 14 V 237 h -108 V 225 a 14 14 90 0 1 14 -14" fill="#081a84" stroke="#081a84" stroke-width="0"/>
	<path d="M 486 237.0 v 12 a 14 14 90 0 1 -14 14 H 392 a 14 14 90 0 1 -14 -14 V 237.0 H 108" fill="#fefeec" stroke="#fefeec" stroke-width="0"/>
	<rect x="378" y="211" width="108" height="52" fill="none" rx="14" stroke="#060100" stroke-width="1.5"/>
	<line x1="378" y1="237" x2="486" y2="237" stroke="#060100" stroke-width="1"/>
	<text x="385" y="229.6" fill="#fefeec" font-family="Courier New" font-size="14">A CATEGORIE</text>
</g>

<!-- Association PEUT DEMANDER -->
<line x1="74" y1="98" x2="239" y2="98" stroke="#060100" stroke-width="1"/>
<text x="123" y="114.0" fill="#060100" font-family="Courier New" font-size="12">0,1</text>
<line x1="432" y1="98" x2="239" y2="98" stroke="#060100" stroke-width="1"/>
<text x="306" y="114.0" fill="#060100" font-family="Courier New" font-size="12">1,1</text>
<path d="M 334.0 98.0 L 322.0 104.0 L 326.0 98.0 L 322.0 92.0 Z" fill="#060100" stroke-width="0"/>
<g id="association-PEUT DEMANDER">
	<path d="M 287 72 a 14 14 90 0 1 14 14 V 98 h -124 V 86 a 14 14 90 0 1 14 -14" fill="#081a84" stroke="#081a84" stroke-width="0"/>
	<path d="M 301 98.0 v 12 a 14 14 90 0 1 -14 14 H 191 a 14 14 90 0 1 -14 -14 V 98.0 H 124" fill="#fefeec" stroke="#fefeec" stroke-width="0"/>
	<rect x="177" y="72" width="124" height="52" fill="none" rx="14" stroke="#060100" stroke-width="1.5"/>
	<line x1="177" y1="98" x2="301" y2="98" stroke="#060100" stroke-width="1"/>
	<text x="184" y="90.6" fill="#fefeec" font-family="Courier New" font-size="14">PEUT DEMANDER</text>
</g>

<!-- Association EST REGLE AVEC -->
<line x1="239" y1="237" x2="239" y2="367" stroke="#060100" stroke-width="1"/>
<text x="244.0" y="333" fill="#060100" font-family="Courier New" font-size="12">1,1</text>
<line x1="74" y1="367" x2="239" y2="367" stroke="#060100" stroke-width="1"/>
<text x="144" y="383.0" fill="#060100" font-family="Courier New" font-size="12">0,N</text>
<path d="M 139.0 367.0 L 151.0 361.0 L 147.0 367.0 L 151.0 373.0 Z" fill="#060100" stroke-width="0"/>
<g id="association-EST REGLE AVEC">
	<path d="M 292 341 a 14 14 90 0 1 14 14 V 367 h -134 V 355 a 14 14 90 0 1 14 -14" fill="#081a84" stroke="#081a84" stroke-width="0"/>
	<path d="M 306 367.0 v 12 a 14 14 90 0 1 -14 14 H 186 a 14 14 90 0 1 -14 -14 V 367.0 H 134" fill="#fefeec" stroke="#fefeec" stroke-width="0"/>
	<rect x="172" y="341" width="134" height="52" fill="none" rx="14" stroke="#060100" stroke-width="1.5"/>
	<line x1="172" y1="367" x2="306" y2="367" stroke="#060100" stroke-width="1"/>
	<text x="179" y="359.6" fill="#fefeec" font-family="Courier New" font-size="14">EST REGLE AVEC</text>
</g>

<!-- Entity PAYMENT_METHOD -->
<g id="entity-PAYMENT_METHOD">
	<g id="frame-PAYMENT_METHOD">
		<rect x="9" y="314" width="130" height="26" fill="#c6281b" stroke="#c6281b" stroke-width="0"/>
		<rect x="9" y="340.0" width="130" height="80" fill="#fced5f" stroke="#fced5f" stroke-width="0"/>
		<rect x="9" y="314" width="130" height="106" fill="none" stroke="#060100" stroke-width="1.5"/>
		<line x1="9" y1="340" x2="139" y2="340" stroke="#060100" stroke-width="1"/>
	</g>
	<text x="14" y="332.6" fill="#fefeec" font-family="Courier New" font-size="14">PAYMENT_METHOD</text>
	<text x="14" y="358.6" fill="#060100" font-family="Courier New" font-size="14">id</text>
	<line x1="14" y1="361.0" x2="32" y2="361.0" stroke="#060100" stroke-width="1"/>
	<text x="14" y="376.6" fill="#060100" font-family="Courier New" font-size="14">name</text>
	<text x="14" y="394.6" fill="#060100" font-family="Courier New" font-size="14">created_at</text>
	<text x="14" y="412.6" fill="#060100" font-family="Courier New" font-size="14">updated_at</text>
</g>

<!-- Entity CATEGORY -->
<g id="entity-CATEGORY">
	<g id="frame-CATEGORY">
		<rect x="384" y="305" width="96" height="26" fill="#c6281b" stroke="#c6281b" stroke-width="0"/>
		<rect x="384" y="331.0" width="96" height="98" fill="#fced5f" stroke="#fced5f" stroke-width="0"/>
		<rect x="384" y="305" width="96" height="124" fill="none" stroke="#060100" stroke-width="1.5"/>
		<line x1="384" y1="331" x2="480" y2="331" stroke="#060100" stroke-width="1"/>
	</g>
	<text x="398" y="323.6" fill="#fefeec" font-family="Courier New" font-size="14">CATEGORY</text>
	<text x="389" y="349.6" fill="#060100" font-family="Courier New" font-size="14">id</text>
	<line x1="389" y1="352.0" x2="407" y2="352.0" stroke="#060100" stroke-width="1"/>
	<text x="389" y="367.6" fill="#060100" font-family="Courier New" font-size="14">name</text>
	<text x="389" y="385.6" fill="#060100" font-family="Courier New" font-size="14">slug</text>
	<text x="389" y="403.6" fill="#060100" font-family="Courier New" font-size="14">created_at</text>
	<text x="389" y="421.6" fill="#060100" font-family="Courier New" font-size="14">updated_at</text>
</g>

<!-- Entity OPERATION -->
<g id="entity-OPERATION">
	<g id="frame-OPERATION">
		<rect x="191" y="157" width="96" height="26" fill="#c6281b" stroke="#c6281b" stroke-width="0"/>
		<rect x="191" y="183.0" width="96" height="134" fill="#fced5f" stroke="#fced5f" stroke-width="0"/>
		<rect x="191" y="157" width="96" height="160" fill="none" stroke="#060100" stroke-width="1.5"/>
		<line x1="191" y1="183" x2="287" y2="183" stroke="#060100" stroke-width="1"/>
	</g>
	<text x="200" y="175.6" fill="#fefeec" font-family="Courier New" font-size="14">OPERATION</text>
	<text x="196" y="201.6" fill="#060100" font-family="Courier New" font-size="14">id</text>
	<line x1="196" y1="204.0" x2="214" y2="204.0" stroke="#060100" stroke-width="1"/>
	<text x="196" y="219.6" fill="#060100" font-family="Courier New" font-size="14">amount</text>
	<text x="196" y="237.6" fill="#060100" font-family="Courier New" font-size="14">type</text>
	<text x="196" y="255.6" fill="#060100" font-family="Courier New" font-size="14">date</text>
	<text x="196" y="273.6" fill="#060100" font-family="Courier New" font-size="14">comment</text>
	<text x="196" y="291.6" fill="#060100" font-family="Courier New" font-size="14">created_at</text>
	<text x="196" y="309.6" fill="#060100" font-family="Courier New" font-size="14">updated_at</text>
</g>

<!-- Entity RESET_REQUEST_PASSWORD -->
<g id="entity-RESET_REQUEST_PASSWORD">
	<g id="frame-RESET_REQUEST_PASSWORD">
		<rect x="334" y="36" width="196" height="26" fill="#c6281b" stroke="#c6281b" stroke-width="0"/>
		<rect x="334" y="62.0" width="196" height="98" fill="#fced5f" stroke="#fced5f" stroke-width="0"/>
		<rect x="334" y="36" width="196" height="124" fill="none" stroke="#060100" stroke-width="1.5"/>
		<line x1="334" y1="62" x2="530" y2="62" stroke="#060100" stroke-width="1"/>
	</g>
	<text x="339" y="54.6" fill="#fefeec" font-family="Courier New" font-size="14">RESET_REQUEST_PASSWORD</text>
	<text x="339" y="80.6" fill="#060100" font-family="Courier New" font-size="14">id</text>
	<line x1="339" y1="83.0" x2="357" y2="83.0" stroke="#060100" stroke-width="1"/>
	<text x="339" y="98.6" fill="#060100" font-family="Courier New" font-size="14">selector</text>
	<text x="339" y="116.6" fill="#060100" font-family="Courier New" font-size="14">hashed_token</text>
	<text x="339" y="134.6" fill="#060100" font-family="Courier New" font-size="14">requested_at</text>
	<text x="339" y="152.6" fill="#060100" font-family="Courier New" font-size="14">expires_at</text>
</g>

<!-- Entity USER -->
<g id="entity-USER">
	<g id="frame-USER">
		<rect x="30" y="9" width="88" height="26" fill="#c6281b" stroke="#c6281b" stroke-width="0"/>
		<rect x="30" y="35.0" width="88" height="152" fill="#fced5f" stroke="#fced5f" stroke-width="0"/>
		<rect x="30" y="9" width="88" height="178" fill="none" stroke="#060100" stroke-width="1.5"/>
		<line x1="30" y1="35" x2="118" y2="35" stroke="#060100" stroke-width="1"/>
	</g>
	<text x="56" y="27.6" fill="#fefeec" font-family="Courier New" font-size="14">USER</text>
	<text x="35" y="53.6" fill="#060100" font-family="Courier New" font-size="14">id</text>
	<line x1="35" y1="56.0" x2="53" y2="56.0" stroke="#060100" stroke-width="1"/>
	<text x="35" y="71.6" fill="#060100" font-family="Courier New" font-size="14">firstname</text>
	<text x="35" y="89.6" fill="#060100" font-family="Courier New" font-size="14">lastname</text>
	<text x="35" y="107.6" fill="#060100" font-family="Courier New" font-size="14">email</text>
	<text x="35" y="125.6" fill="#060100" font-family="Courier New" font-size="14">password</text>
	<text x="35" y="143.6" fill="#060100" font-family="Courier New" font-size="14">roles</text>
	<text x="35" y="161.6" fill="#060100" font-family="Courier New" font-size="14">create_at</text>
	<text x="35" y="179.6" fill="#060100" font-family="Courier New" font-size="14">update_at</text>
</g>
</svg>