<?xml version="1.0" standalone="no"?>
<!DOCTYPE svg PUBLIC "-//W3C//DTD SVG 1.1//EN"
"http://www.w3.org/Graphics/SVG/1.1/DTD/svg11.dtd">

<svg width="584" height="1410" view_box="0 0 584 1410"
xmlns="http://www.w3.org/2000/svg"
xmlns:link="http://www.w3.org/1999/xlink">\n\n<desc>Généré par Mocodo 2.3.7 le Thu, 18 Jun 2020 01:58:11</desc>

<rect id="frame" x="0" y="0" width="584" height="1410" fill="#fefeec" stroke="none" stroke-width="0"/>

<!-- Association FAIT -->
<line x1="300" y1="642" x2="485" y2="642" stroke="#060100" stroke-width="1"/>
<text x="387" y="658.0" fill="#060100" font-family="Courier New" font-size="12">0,N</text>
<path d="M 382.0 642.0 L 394.0 636.0 L 390.0 642.0 L 394.0 648.0 Z" fill="#060100" stroke-width="0"/>
<line x1="485" y1="1150" x2="485" y2="642" stroke="#060100" stroke-width="1"/>
<text x="490.0" y="891" fill="#060100" font-family="Courier New" font-size="12">0,N</text>
<g id="association-FAIT">
	<path d="M 496 616 a 14 14 90 0 1 14 14 V 642 h -50 V 630 a 14 14 90 0 1 14 -14" fill="#081a84" stroke="#081a84" stroke-width="0"/>
	<path d="M 510 642.0 v 12 a 14 14 90 0 1 -14 14 H 474 a 14 14 90 0 1 -14 -14 V 642.0 H 50" fill="#fefeec" stroke="#fefeec" stroke-width="0"/>
	<rect x="460" y="616" width="50" height="52" fill="none" rx="14" stroke="#060100" stroke-width="1.5"/>
	<line x1="460" y1="642" x2="510" y2="642" stroke="#060100" stroke-width="1"/>
	<text x="467" y="634.6" fill="#fefeec" font-family="Courier New" font-size="14">FAIT</text>
</g>

<!-- Association A CATEGORIE -->
<line x1="300" y1="642" x2="300" y2="197" stroke="#060100" stroke-width="1"/>
<text x="305.0" y="401" fill="#060100" font-family="Courier New" font-size="12">1,1</text>
<line x1="485" y1="197" x2="300" y2="197" stroke="#060100" stroke-width="1"/>
<text x="380" y="213.0" fill="#060100" font-family="Courier New" font-size="12">0,N</text>
<path d="M 408.0 197.0 L 396.0 203.0 L 400.0 197.0 L 396.0 191.0 Z" fill="#060100" stroke-width="0"/>
<g id="association-A CATEGORIE">
	<path d="M 340 171 a 14 14 90 0 1 14 14 V 197 h -108 V 185 a 14 14 90 0 1 14 -14" fill="#081a84" stroke="#081a84" stroke-width="0"/>
	<path d="M 354 197.0 v 12 a 14 14 90 0 1 -14 14 H 260 a 14 14 90 0 1 -14 -14 V 197.0 H 108" fill="#fefeec" stroke="#fefeec" stroke-width="0"/>
	<rect x="246" y="171" width="108" height="52" fill="none" rx="14" stroke="#060100" stroke-width="1.5"/>
	<line x1="246" y1="197" x2="354" y2="197" stroke="#060100" stroke-width="1"/>
	<text x="253" y="189.6" fill="#fefeec" font-family="Courier New" font-size="14">A CATEGORIE</text>
</g>

<!-- Association PEUT DEMANDER -->
<line x1="485" y1="1150" x2="300" y2="1150" stroke="#060100" stroke-width="1"/>
<text x="367" y="1166.0" fill="#060100" font-family="Courier New" font-size="12">0,1</text>
<line x1="107" y1="1150" x2="300" y2="1150" stroke="#060100" stroke-width="1"/>
<text x="210" y="1166.0" fill="#060100" font-family="Courier New" font-size="12">1,1</text>
<path d="M 205.0 1150.0 L 217.0 1144.0 L 213.0 1150.0 L 217.0 1156.0 Z" fill="#060100" stroke-width="0"/>
<g id="association-PEUT DEMANDER">
	<path d="M 348 1124 a 14 14 90 0 1 14 14 V 1150 h -124 V 1138 a 14 14 90 0 1 14 -14" fill="#081a84" stroke="#081a84" stroke-width="0"/>
	<path d="M 362 1150.0 v 12 a 14 14 90 0 1 -14 14 H 252 a 14 14 90 0 1 -14 -14 V 1150.0 H 124" fill="#fefeec" stroke="#fefeec" stroke-width="0"/>
	<rect x="238" y="1124" width="124" height="52" fill="none" rx="14" stroke="#060100" stroke-width="1.5"/>
	<line x1="238" y1="1150" x2="362" y2="1150" stroke="#060100" stroke-width="1"/>
	<text x="245" y="1142.6" fill="#fefeec" font-family="Courier New" font-size="14">PEUT DEMANDER</text>
</g>

<!-- Association EST REGLE AVEC -->
<line x1="300" y1="642" x2="107" y2="642" stroke="#060100" stroke-width="1"/>
<text x="190" y="658.0" fill="#060100" font-family="Courier New" font-size="12">1,1</text>
<line x1="107" y1="197" x2="107" y2="642" stroke="#060100" stroke-width="1"/>
<text x="112.0" y="356" fill="#060100" font-family="Courier New" font-size="12">0,N</text>
<path d="M 107.0 340.0 L 113.0 352.0 L 107.0 348.0 L 101.0 352.0 Z" fill="#060100" stroke-width="0"/>
<g id="association-EST REGLE AVEC">
	<path d="M 160 616 a 14 14 90 0 1 14 14 V 642 h -134 V 630 a 14 14 90 0 1 14 -14" fill="#081a84" stroke="#081a84" stroke-width="0"/>
	<path d="M 174 642.0 v 12 a 14 14 90 0 1 -14 14 H 54 a 14 14 90 0 1 -14 -14 V 642.0 H 134" fill="#fefeec" stroke="#fefeec" stroke-width="0"/>
	<rect x="40" y="616" width="134" height="52" fill="none" rx="14" stroke="#060100" stroke-width="1.5"/>
	<line x1="40" y1="642" x2="174" y2="642" stroke="#060100" stroke-width="1"/>
	<text x="47" y="634.6" fill="#fefeec" font-family="Courier New" font-size="14">EST REGLE AVEC</text>
</g>

<!-- Entity PAYMENT_METHOD -->
<g id="entity-PAYMENT_METHOD">
	<g id="frame-PAYMENT_METHOD">
		<rect x="30" y="54" width="154" height="26" fill="#c6281b" stroke="#c6281b" stroke-width="0"/>
		<rect x="30" y="80.0" width="154" height="260" fill="#fced5f" stroke="#fced5f" stroke-width="0"/>
		<rect x="30" y="54" width="154" height="286" fill="none" stroke="#060100" stroke-width="1.5"/>
		<line x1="30" y1="80" x2="184" y2="80" stroke="#060100" stroke-width="1"/>
	</g>
	<text x="47" y="72.6" fill="#fefeec" font-family="Courier New" font-size="14">PAYMENT_METHOD</text>
	<text x="35" y="98.6" fill="#060100" font-family="Courier New" font-size="14">id</text>
	<line x1="35" y1="101.0" x2="53" y2="101.0" stroke="#060100" stroke-width="1"/>
	<text x="35" y="116.6" fill="#060100" font-family="Courier New" font-size="14">slug</text>
	<text x="35" y="134.6" fill="#060100" font-family="Courier New" font-size="14">name</text>
	<text x="35" y="152.6" fill="#060100" font-family="Courier New" font-size="14">created_at</text>
	<text x="35" y="170.6" fill="#060100" font-family="Courier New" font-size="14">updated_at</text>
	<text x="35" y="188.6" fill="#060100" font-family="Courier New" font-size="14">_________</text>
	<line x1="35" y1="191.0" x2="112" y2="191.0" stroke="#060100" stroke-width="1"/>
	<text x="35" y="206.6" fill="#060100" font-family="Courier New" font-size="14">getId()</text>
	<text x="35" y="224.6" fill="#060100" font-family="Courier New" font-size="14">getName()</text>
	<text x="35" y="242.6" fill="#060100" font-family="Courier New" font-size="14">setName()</text>
	<text x="35" y="260.6" fill="#060100" font-family="Courier New" font-size="14">getOperations()</text>
	<text x="35" y="278.6" fill="#060100" font-family="Courier New" font-size="14">addOperation()</text>
	<text x="35" y="296.6" fill="#060100" font-family="Courier New" font-size="14">removeOperation()</text>
	<text x="35" y="314.6" fill="#060100" font-family="Courier New" font-size="14">getSlug()</text>
	<text x="35" y="332.6" fill="#060100" font-family="Courier New" font-size="14">setSlug()</text>
</g>

<!-- Entity CATEGORY -->
<g id="entity-CATEGORY">
	<g id="frame-CATEGORY">
		<rect x="408" y="9" width="154" height="26" fill="#c6281b" stroke="#c6281b" stroke-width="0"/>
		<rect x="408" y="35.0" width="154" height="350" fill="#fced5f" stroke="#fced5f" stroke-width="0"/>
		<rect x="408" y="9" width="154" height="376" fill="none" stroke="#060100" stroke-width="1.5"/>
		<line x1="408" y1="35" x2="562" y2="35" stroke="#060100" stroke-width="1"/>
	</g>
	<text x="451" y="27.6" fill="#fefeec" font-family="Courier New" font-size="14">CATEGORY</text>
	<text x="413" y="53.6" fill="#060100" font-family="Courier New" font-size="14">id</text>
	<line x1="413" y1="56.0" x2="431" y2="56.0" stroke="#060100" stroke-width="1"/>
	<text x="413" y="71.6" fill="#060100" font-family="Courier New" font-size="14">name</text>
	<text x="413" y="89.6" fill="#060100" font-family="Courier New" font-size="14">slug</text>
	<text x="413" y="107.6" fill="#060100" font-family="Courier New" font-size="14">color</text>
	<text x="413" y="125.6" fill="#060100" font-family="Courier New" font-size="14">created_at</text>
	<text x="413" y="143.6" fill="#060100" font-family="Courier New" font-size="14">updated_at</text>
	<text x="413" y="161.6" fill="#060100" font-family="Courier New" font-size="14">_________</text>
	<line x1="413" y1="164.0" x2="490" y2="164.0" stroke="#060100" stroke-width="1"/>
	<text x="413" y="179.6" fill="#060100" font-family="Courier New" font-size="14">getId()</text>
	<text x="413" y="197.6" fill="#060100" font-family="Courier New" font-size="14">getName()</text>
	<text x="413" y="215.6" fill="#060100" font-family="Courier New" font-size="14">setName()</text>
	<text x="413" y="233.6" fill="#060100" font-family="Courier New" font-size="14">getOperations()</text>
	<text x="413" y="251.6" fill="#060100" font-family="Courier New" font-size="14">addOperation()</text>
	<text x="413" y="269.6" fill="#060100" font-family="Courier New" font-size="14">removeOperation()</text>
	<text x="413" y="287.6" fill="#060100" font-family="Courier New" font-size="14">getSlug()</text>
	<text x="413" y="305.6" fill="#060100" font-family="Courier New" font-size="14">setSlug()</text>
	<text x="413" y="323.6" fill="#060100" font-family="Courier New" font-size="14">getAmount()</text>
	<text x="413" y="341.6" fill="#060100" font-family="Courier New" font-size="14">getColor()</text>
	<text x="413" y="359.6" fill="#060100" font-family="Courier New" font-size="14">setColor()</text>
</g>

<!-- Entity OPERATION -->
<g id="entity-OPERATION">
	<g id="frame-OPERATION">
		<rect x="218" y="409" width="164" height="26" fill="#c6281b" stroke="#c6281b" stroke-width="0"/>
		<rect x="218" y="435.0" width="164" height="440" fill="#fced5f" stroke="#fced5f" stroke-width="0"/>
		<rect x="218" y="409" width="164" height="466" fill="none" stroke="#060100" stroke-width="1.5"/>
		<line x1="218" y1="435" x2="382" y2="435" stroke="#060100" stroke-width="1"/>
	</g>
	<text x="261" y="427.6" fill="#fefeec" font-family="Courier New" font-size="14">OPERATION</text>
	<text x="223" y="453.6" fill="#060100" font-family="Courier New" font-size="14">id</text>
	<line x1="223" y1="456.0" x2="241" y2="456.0" stroke="#060100" stroke-width="1"/>
	<text x="223" y="471.6" fill="#060100" font-family="Courier New" font-size="14">amount</text>
	<text x="223" y="489.6" fill="#060100" font-family="Courier New" font-size="14">type</text>
	<text x="223" y="507.6" fill="#060100" font-family="Courier New" font-size="14">date</text>
	<text x="223" y="525.6" fill="#060100" font-family="Courier New" font-size="14">comment</text>
	<text x="223" y="543.6" fill="#060100" font-family="Courier New" font-size="14">created_at</text>
	<text x="223" y="561.6" fill="#060100" font-family="Courier New" font-size="14">updated_at</text>
	<text x="223" y="579.6" fill="#060100" font-family="Courier New" font-size="14">_________</text>
	<line x1="223" y1="582.0" x2="300" y2="582.0" stroke="#060100" stroke-width="1"/>
	<text x="223" y="597.6" fill="#060100" font-family="Courier New" font-size="14">getId()</text>
	<text x="223" y="615.6" fill="#060100" font-family="Courier New" font-size="14">getAmount()</text>
	<text x="223" y="633.6" fill="#060100" font-family="Courier New" font-size="14">setAmount()</text>
	<text x="223" y="651.6" fill="#060100" font-family="Courier New" font-size="14">getComment()</text>
	<text x="223" y="669.6" fill="#060100" font-family="Courier New" font-size="14">setComment()</text>
	<text x="223" y="687.6" fill="#060100" font-family="Courier New" font-size="14">getDate()</text>
	<text x="223" y="705.6" fill="#060100" font-family="Courier New" font-size="14">setDate</text>
	<text x="223" y="723.6" fill="#060100" font-family="Courier New" font-size="14">getType()</text>
	<text x="223" y="741.6" fill="#060100" font-family="Courier New" font-size="14">setType()</text>
	<text x="223" y="759.6" fill="#060100" font-family="Courier New" font-size="14">getCategory()</text>
	<text x="223" y="777.6" fill="#060100" font-family="Courier New" font-size="14">setCategory()</text>
	<text x="223" y="795.6" fill="#060100" font-family="Courier New" font-size="14">getPaymentMethod()</text>
	<text x="223" y="813.6" fill="#060100" font-family="Courier New" font-size="14">setPaymentMethod()</text>
	<text x="223" y="831.6" fill="#060100" font-family="Courier New" font-size="14">getUser()</text>
	<text x="223" y="849.6" fill="#060100" font-family="Courier New" font-size="14">setUser()</text>
	<text x="223" y="867.6" fill="#060100" font-family="Courier New" font-size="14">getValue()</text>
</g>

<!-- Entity RESET_REQUEST_PASSWORD -->
<g id="entity-RESET_REQUEST_PASSWORD">
	<g id="frame-RESET_REQUEST_PASSWORD">
		<rect x="9" y="1070" width="196" height="26" fill="#c6281b" stroke="#c6281b" stroke-width="0"/>
		<rect x="9" y="1096.0" width="196" height="134" fill="#fced5f" stroke="#fced5f" stroke-width="0"/>
		<rect x="9" y="1070" width="196" height="160" fill="none" stroke="#060100" stroke-width="1.5"/>
		<line x1="9" y1="1096" x2="205" y2="1096" stroke="#060100" stroke-width="1"/>
	</g>
	<text x="14" y="1088.6" fill="#fefeec" font-family="Courier New" font-size="14">RESET_REQUEST_PASSWORD</text>
	<text x="14" y="1114.6" fill="#060100" font-family="Courier New" font-size="14">id</text>
	<line x1="14" y1="1117.0" x2="32" y2="1117.0" stroke="#060100" stroke-width="1"/>
	<text x="14" y="1132.6" fill="#060100" font-family="Courier New" font-size="14">selector</text>
	<text x="14" y="1150.6" fill="#060100" font-family="Courier New" font-size="14">hashed_token</text>
	<text x="14" y="1168.6" fill="#060100" font-family="Courier New" font-size="14">requested_at</text>
	<text x="14" y="1186.6" fill="#060100" font-family="Courier New" font-size="14">expires_at</text>
	<text x="14" y="1204.6" fill="#060100" font-family="Courier New" font-size="14">_________</text>
	<line x1="14" y1="1207.0" x2="91" y2="1207.0" stroke="#060100" stroke-width="1"/>
	<text x="14" y="1222.6" fill="#060100" font-family="Courier New" font-size="14">getUser()</text>
</g>

<!-- Entity USER -->
<g id="entity-USER">
	<g id="frame-USER">
		<rect x="395" y="899" width="180" height="26" fill="#c6281b" stroke="#c6281b" stroke-width="0"/>
		<rect x="395" y="925.0" width="180" height="476" fill="#fced5f" stroke="#fced5f" stroke-width="0"/>
		<rect x="395" y="899" width="180" height="502" fill="none" stroke="#060100" stroke-width="1.5"/>
		<line x1="395" y1="925" x2="575" y2="925" stroke="#060100" stroke-width="1"/>
	</g>
	<text x="467" y="917.6" fill="#fefeec" font-family="Courier New" font-size="14">USER</text>
	<text x="400" y="943.6" fill="#060100" font-family="Courier New" font-size="14">id</text>
	<line x1="400" y1="946.0" x2="418" y2="946.0" stroke="#060100" stroke-width="1"/>
	<text x="400" y="961.6" fill="#060100" font-family="Courier New" font-size="14">firstname</text>
	<text x="400" y="979.6" fill="#060100" font-family="Courier New" font-size="14">lastname</text>
	<text x="400" y="997.6" fill="#060100" font-family="Courier New" font-size="14">email</text>
	<text x="400" y="1015.6" fill="#060100" font-family="Courier New" font-size="14">password</text>
	<text x="400" y="1033.6" fill="#060100" font-family="Courier New" font-size="14">roles</text>
	<text x="400" y="1051.6" fill="#060100" font-family="Courier New" font-size="14">create_at</text>
	<text x="400" y="1069.6" fill="#060100" font-family="Courier New" font-size="14">update_at</text>
	<text x="400" y="1087.6" fill="#060100" font-family="Courier New" font-size="14">_________</text>
	<line x1="400" y1="1090.0" x2="477" y2="1090.0" stroke="#060100" stroke-width="1"/>
	<text x="400" y="1105.6" fill="#060100" font-family="Courier New" font-size="14">getId()</text>
	<text x="400" y="1123.6" fill="#060100" font-family="Courier New" font-size="14">getEmail()</text>
	<text x="400" y="1141.6" fill="#060100" font-family="Courier New" font-size="14">setEmail()</text>
	<text x="400" y="1159.6" fill="#060100" font-family="Courier New" font-size="14">getUsername()</text>
	<text x="400" y="1177.6" fill="#060100" font-family="Courier New" font-size="14">getRoles()</text>
	<text x="400" y="1195.6" fill="#060100" font-family="Courier New" font-size="14">setRoles()</text>
	<text x="400" y="1213.6" fill="#060100" font-family="Courier New" font-size="14">getPassword()</text>
	<text x="400" y="1231.6" fill="#060100" font-family="Courier New" font-size="14">setPassword()</text>
	<text x="400" y="1249.6" fill="#060100" font-family="Courier New" font-size="14">getSalt()</text>
	<text x="400" y="1267.6" fill="#060100" font-family="Courier New" font-size="14">eraseCreditentials()</text>
	<text x="400" y="1285.6" fill="#060100" font-family="Courier New" font-size="14">getFirstname()</text>
	<text x="400" y="1303.6" fill="#060100" font-family="Courier New" font-size="14">setFirstname()</text>
	<text x="400" y="1321.6" fill="#060100" font-family="Courier New" font-size="14">getLastname()</text>
	<text x="400" y="1339.6" fill="#060100" font-family="Courier New" font-size="14">setLastname()</text>
	<text x="400" y="1357.6" fill="#060100" font-family="Courier New" font-size="14">getOperations()</text>
	<text x="400" y="1375.6" fill="#060100" font-family="Courier New" font-size="14">addOperation()</text>
	<text x="400" y="1393.6" fill="#060100" font-family="Courier New" font-size="14">removeOperation()</text>
</g>
</svg>